<?xml version="1.0" encoding="utf-8"?>
<!-- Generator: Adobe Illustrator 24.0.3, SVG Export Plug-In . SVG Version: 6.00 Build 0)  -->
<svg version="1.1" id="Layer_1" xmlns="http://www.w3.org/2000/svg" xmlns:xlink="http://www.w3.org/1999/xlink" x="0px" y="0px"
	 viewBox="0 0 768.6 492.7" style="enable-background:new 0 0 768.6 492.7;" xml:space="preserve">
<style type="text/css">
	.st0{fill-rule:evenodd;clip-rule:evenodd;}
</style>
<g>
	<g>
		<path class="st0" d="M210.4,0c-2-0.2-2.4,1.9-0.1,7.5c7.1,12.2,16.3,30.9,25.9,32.9c9.1,2,24.4,6.1,13.9-4.5
			C246,30.7,217.6,0.7,210.4,0L210.4,0z"/>
		<path class="st0" d="M558.3,0c-7.2,0.7-35.7,30.7-39.7,35.9c-10.5,10.6,4.8,6.5,13.9,4.5c9.6-2.1,18.8-20.7,25.9-32.9
			C560.6,1.9,560.3-0.2,558.3,0L558.3,0z"/>
		<path class="st0" d="M241,43.7c-5.3-0.2-8.7,1.4-4.7,7.3c7.7,11.3,15.2,26.9,30.7,30.6c6.5,0.8,9.6,0.5,14.8,0.9
			c16.5,1-16-27.3-22.6-33.7C257.7,47.3,247.8,44,241,43.7L241,43.7z"/>
		<path class="st0" d="M527.7,43.7c-6.8,0.3-16.8,3.6-18.2,5c-6.6,6.4-39.1,34.7-22.6,33.7c5.2-0.3,8.3,0,14.8-0.9
			c15.5-3.7,23-19.3,30.7-30.6C536.4,45.1,533,43.5,527.7,43.7L527.7,43.7z"/>
		<path class="st0" d="M277.2,53.1c-4.5,0-7.2,1.3-5.7,4.5c5.5,6.1,11.2,12,17.1,17.7c5,4.5,12,8.2,19.2,8.8
			c6.8,0.2,13.7,0.2,20.7-0.1c11.5-0.7-10.6-13.5-25.4-23.5C297,56.5,284.6,53.1,277.2,53.1L277.2,53.1z"/>
		<path class="st0" d="M491.5,53.1c-7.5,0-19.9,3.4-25.9,7.4c-14.8,9.9-36.9,22.8-25.4,23.5c7,0.3,13.9,0.3,20.7,0.1
			c7.2-0.6,14.1-4.3,19.2-8.8c6-5.7,11.6-11.6,17.1-17.7C498.7,54.4,496,53.1,491.5,53.1L491.5,53.1z"/>
		<path class="st0" d="M274.9,83.6c-6.3,0.2-10.8,2.3-7.5,8.5c10.4,10,25.9,25.4,35.5,28.6c8.7,2,16.9,0.5,26.6-0.8
			c13.3-1.8-28.6-29.6-34.4-33.1C294,86.1,283,83.4,274.9,83.6L274.9,83.6z"/>
		<path class="st0" d="M493.7,83.6c-8.1-0.3-19,2.5-20.2,3.2c-5.8,3.5-47.7,31.3-34.4,33.1c9.6,1.3,17.9,2.8,26.6,0.8
			c9.6-3.2,25.1-18.6,35.5-28.6C504.5,85.9,500,83.9,493.7,83.6L493.7,83.6z"/>
		<path class="st0" d="M330.5,85.3c-7,0.3-13.9,0.4-20.8,0.3c-5.5-0.1-5.8,2.7-0.2,7.1c6.6,5.2,13.9,11.9,20.9,16.5
			c5.9,3.9,11.1,4.2,17.4,2.9c7.4-1.5,14.7-3.3,22.1-5.4c6.4-1.8,9.2-4.6,3.3-6.9c-7.3-2.9-14.5-6.1-21.6-9.7
			C345.1,87,337.9,85.6,330.5,85.3L330.5,85.3z"/>
		<path class="st0" d="M438.2,85.3c-7.4,0.3-14.6,1.7-21.1,4.9c-7.1,3.6-14.3,6.8-21.6,9.7c-5.8,2.3-3,5.1,3.3,6.9
			c7.4,2.1,14.8,3.9,22.1,5.4c6.3,1.3,11.5,1,17.4-2.9c6.9-4.6,14.3-11.3,20.9-16.5c5.6-4.5,5.2-7.2-0.2-7.1
			C452.1,85.8,445.2,85.7,438.2,85.3L438.2,85.3z"/>
		<path class="st0" d="M384.3,105.7c-7.7,0-23.8,6.7-31.2,8.2c-5.9,1.3-6.4,4.9-0.2,8.3c7.3,3.9,23.2,13.2,31.4,13.2
			s24.1-9.3,31.4-13.2c6.2-3.4,5.7-7-0.2-8.3C408.2,112.4,392,105.7,384.3,105.7L384.3,105.7z"/>
		<path class="st0" d="M336,122.5c-6.5,0-12.6,1.4-20.8,1.8c-5.8,0.4-3.1,6.5,2.7,11.1c6.9,5.5,10.8,8.7,18,13.7
			c6.2,4.2,15.8,6.2,22.2,4.5c7.5-2,12.7-3.7,20.3-6.3c6.5-2.2,0-9-5.9-11.9c-13.4-6.4-17.9-9.3-29.8-12.2
			C340.3,122.7,338.1,122.5,336,122.5L336,122.5z"/>
		<path class="st0" d="M432.7,122.5c-2.2,0-4.4,0.2-6.7,0.7c-11.9,3-16.4,5.9-29.8,12.2c-6,2.8-12.4,9.6-5.9,11.9
			c7.5,2.6,12.8,4.3,20.3,6.3c6.4,1.7,16-0.3,22.2-4.5c7.3-5,11.1-8.2,18-13.7c5.9-4.7,8.5-10.7,2.7-11.1
			C445.3,123.9,439.2,122.5,432.7,122.5L432.7,122.5z"/>
		<path class="st0" d="M384.3,149.3c-8,0.3-17.4,4.3-31.9,9.6c-15.8,5.7,23.3,24.3,27.9,26.4c1.3,0.6,2.6,1.1,4,1.1
			c1,0,2-0.4,2.9-0.8c5.2-2.1,44.6-21,28.9-26.7C401.7,153.6,392.3,149.5,384.3,149.3z"/>
	</g>
	<g>
		<path d="M154.3,282.8V335c0,0.6-0.4,1-1,1c-28.6,0-51.8-23.9-51.8-53.2v-26.2c0-13.8-10.9-25.1-24.4-25.1c0,0,0,0-0.1,0s0,0-0.1,0
			c-13.4,0-24.4,11.2-24.4,25.1v52.3c0,13.8,10.9,25.1,24.4,25.1c0,0,0,0,0.1,0c0,0,0,0,0.1,0h25.3c0.1,0,0.1,0.1,0.2,0.1
			c28.5,0.1,51.6,23.9,51.6,53.2v52.2c0,29.3-23.2,53.2-51.8,53.2H77.2c0,0,0,0-0.1,0c0,0,0,0-0.1,0H51.8c0,0,0,0,0,0
			C23.2,492.7,0,468.8,0,439.5v-52.2c0-0.6,0.4-1,1-1c28.5,0,51.8,23.9,51.8,53.2v26.2c0,13.8,10.9,25.1,24.4,25.1c0,0,0,0,0.1,0
			c0,0,0,0,0.1,0c13.4,0,24.4-11.2,24.4-25.1V361c0-13.8-10.9-25.1-24.4-25.1c0,0,0,0-0.1,0c0,0,0,0-0.1,0H51.9
			c-0.1,0-0.1,0.1-0.2,0.1C23.2,336,0,312.1,0,282.8c0-29.4,23.2-53.2,51.8-53.2h25.3c0,0,0,0,0.1,0c0,0,0,0,0.1,0h25.3
			C131.1,229.5,154.3,253.4,154.3,282.8z"/>
		<path d="M230.6,251.2v219.9c0,0,0,0,0,0c0,11.9-12.4,21.6-27.7,21.6h-23.2c-0.5,0-0.9-0.3-0.9-0.7v-20.9c0,0,0,0,0,0V251.2
			c0,0,0,0,0,0c0-11.9,12.4-21.6,27.7-21.6h23.2c0.5,0,0.9,0.3,0.9,0.7L230.6,251.2C230.6,251.1,230.6,251.2,230.6,251.2z"/>
		<path d="M265.7,258.8C265.7,258.8,265.6,258.7,265.7,258.8l0-29.4c0-0.5,0.4-1,1-1h23.6c8.7,0,16.3,4.3,21.5,10.9
			c8.7-6.8,19.5-10.9,31.2-10.9h25.3c28.5,0,51.8,24,51.8,53.5v52.5c0,0.6-0.4,1-1,1c-28.5,0-51.8-24-51.8-53.5v-26.3
			c0-13.9-10.9-25.2-24.4-25.2c-11.3,0-21.7,3.9-30,10.5c3.4,5,5.5,11.1,5.5,17.8c0,0,0,0,0,0v203.6c0,0,0,0,0,0v29.3
			c0,0.6-0.4,1-1,1h-23.6c-15.5,0-28.2-13.6-28.2-30.3c0,0,0,0,0,0V258.8z"/>
		<path d="M435.5,439.3V281.9c0-29.5,23.2-53.5,51.8-53.5c0,0,0,0,0.1,0c0,0,0,0,0.1,0h50.7c28.6,0,51.8,24,51.8,53.5v52.4
			c0,29.5-23.2,53.5-51.8,53.5h-25.3c-8.9,0-17.2-2.3-24.5-6.4v83.9c0,0.1,0.1,0.2,0.1,0.3c0,13.9,10.9,25.2,24.4,25.2
			c13.4,0,24.4-11.3,24.4-25.2v-26.3c0-29.5,23.2-53.5,51.8-53.5c0.5,0,1,0.4,1,1v52.5c0,29.5-23.2,53.5-51.8,53.5h-50.7
			c0,0,0,0-0.1,0c0,0,0,0-0.1,0C458.7,492.7,435.5,468.7,435.5,439.3z M488.2,379c7.2,4.2,15.6,6.7,24.5,6.7
			c13.4,0,24.4-11.3,24.4-25.2v-105c0-13.9-10.9-25.2-24.4-25.2c-13.4,0-24.4,11.3-24.4,25.2c0,0.1-0.1,0.2-0.1,0.3V379z"/>
		<path d="M614.4,462.6c0-0.1-0.1-0.1-0.1-0.2V258.8c0,0,0-0.1,0-0.1v-29.2c0-0.5,0.4-1,1-1h23.6c8.6,0,16.2,4.3,21.4,10.8
			c8.7-6.8,19.5-10.9,31.2-10.9h25.3c28.6,0,51.8,24,51.8,53.5v180.5c0,0,0,0,0,0v29.3c0,0.5-0.4,1-1,1h-23.6
			c-15.5,0-28.2-13.6-28.2-30.3c0,0,0,0,0,0V255.5c0-13.9-10.9-25.2-24.4-25.2c-11.3,0-21.6,3.9-30,10.5c3.5,5,5.6,11.2,5.6,17.9
			c0,0.1-0.1,0.1-0.1,0.2v203.3c0,0.1,0.1,0.1,0.1,0.2v29.3c0,0.6-0.4,1-1,1h-23.6C627.1,492.7,614.5,479.2,614.4,462.6z"/>
	</g>
</g>

</svg>
