<?xml version="1.0" standalone="no"?>
<!DOCTYPE svg PUBLIC "-//W3C//DTD SVG 20010904//EN"
 "http://www.w3.org/TR/2001/REC-SVG-20010904/DTD/svg10.dtd">
<svg version="1.0" xmlns="http://www.w3.org/2000/svg"
 width="700.000000pt" height="700.000000pt" viewBox="0 0 700.000000 700.000000"
 preserveAspectRatio="xMidYMid meet">
<metadata>
Created by potrace 1.11, written by Peter Selinger 2001-2013
</metadata>
<g transform="translate(0.000000,700.000000) scale(0.100000,-0.100000)"
fill="#000000" stroke="none">
<path d="M1485 6559 c-55 -11 -107 -22 -115 -26 -8 -3 -22 -8 -30 -9 -57 -8
-240 -73 -315 -110 -156 -79 -335 -196 -439 -288 -112 -99 -193 -178 -216
-211 -38 -56 -72 -88 -79 -77 -5 9 -12 7 -25 -7 -17 -19 -17 -19 5 -14 l23 6
-22 -30 c-12 -17 -22 -33 -22 -36 0 -3 -22 -43 -50 -89 -27 -46 -50 -87 -50
-93 -1 -5 -9 -28 -20 -50 -11 -22 -19 -50 -20 -62 0 -12 -4 -24 -9 -27 -4 -3
-11 -31 -15 -63 -4 -32 -8 -73 -10 -91 -2 -18 -9 -38 -15 -46 -7 -9 -7 -16 1
-24 9 -9 9 -15 0 -24 -7 -7 -13 -35 -13 -62 -1 -28 -4 -64 -8 -81 -7 -30 -7
-30 -14 -5 -5 19 -9 22 -18 13 -15 -15 -3 -82 15 -89 8 -3 14 -16 14 -30 0
-29 -6 -30 -25 -6 -12 15 -13 9 -7 -43 3 -33 7 -73 8 -90 2 -16 9 -50 16 -75
7 -25 14 -61 15 -81 2 -20 8 -46 14 -57 6 -10 8 -22 5 -25 -3 -3 -3 -11 1 -17
12 -19 33 8 29 38 -2 15 -1 19 2 9 4 -12 13 -17 27 -15 28 4 35 54 14 106 -8
22 -11 45 -7 57 10 28 2 86 -15 105 -9 10 -11 21 -5 30 5 8 6 19 3 24 -6 9
-10 72 -13 211 0 22 8 66 20 98 15 43 18 62 10 77 -8 15 -6 21 10 30 11 6 20
20 20 31 0 12 6 33 13 47 36 72 76 159 82 180 4 13 26 51 50 85 24 34 61 87
81 117 73 107 324 339 488 450 28 19 98 57 156 85 111 53 140 72 140 92 0 8
-16 4 -46 -12 -26 -14 -54 -25 -62 -25 -17 0 -8 13 11 16 7 1 33 12 58 24 51
25 105 37 94 21 -3 -6 -13 -11 -21 -11 -8 0 -14 -4 -14 -10 0 -18 46 -11 93
14 25 14 71 30 101 38 71 16 73 30 4 24 -64 -6 -45 9 25 19 32 5 47 4 47 -4 0
-6 18 -11 44 -11 42 0 69 14 78 41 2 6 15 9 28 7 l25 -4 -29 -12 c-44 -19 -23
-27 36 -14 99 21 145 23 159 6 8 -10 24 -14 43 -11 30 4 206 -42 254 -67 15
-8 55 -42 89 -76 162 -161 207 -273 220 -537 4 -92 1 -129 -16 -205 -29 -125
-88 -301 -123 -366 -15 -29 -28 -61 -28 -72 0 -11 -4 -28 -9 -38 -5 -9 -31
-60 -57 -112 -49 -100 -59 -111 -81 -103 -7 3 -13 -2 -13 -11 0 -9 -15 -33
-33 -53 -19 -21 -50 -63 -70 -94 -20 -30 -59 -79 -87 -108 -58 -61 -57 -86 2
-39 25 21 49 32 63 30 13 -2 26 2 30 7 3 6 12 11 18 11 8 0 8 -3 -1 -9 -8 -4
-14 -12 -14 -17 -1 -23 -36 -49 -68 -52 -37 -3 -80 -32 -47 -32 11 0 14 -5 10
-17 -5 -12 -3 -14 7 -8 9 5 11 4 6 -4 -4 -6 -11 -9 -15 -7 -4 3 -8 -8 -9 -24
0 -17 2 -30 6 -30 9 1 128 147 194 240 53 74 182 281 231 371 14 26 42 91 62
145 20 55 43 113 50 129 18 42 25 74 16 80 -9 5 -43 -75 -67 -155 -33 -112
-111 -265 -177 -344 -20 -25 -25 -27 -30 -12 -4 9 -3 15 2 12 5 -3 14 1 21 9
9 10 9 15 1 15 -17 0 -13 30 5 37 8 3 13 11 11 17 -3 7 13 39 35 72 22 32 49
84 60 114 12 30 24 60 29 65 11 15 99 281 99 302 0 15 2 15 9 4 5 -8 7 -28 4
-45 -10 -66 -9 -71 11 -68 15 3 18 -2 14 -28 -3 -17 -1 -33 3 -36 9 -5 47 72
47 96 0 8 4 26 8 38 6 21 4 23 -17 20 -15 -2 -24 -10 -25 -23 -2 -45 -5 -55
-15 -55 -7 0 -9 12 -5 33 5 25 8 164 4 196 -2 22 4 41 12 41 6 0 10 -15 10
-34 0 -19 5 -38 11 -41 15 -10 18 -4 23 40 3 22 10 41 16 43 12 4 14 32 1 32
-5 0 -11 -6 -14 -12 -2 -7 -7 -10 -11 -7 -4 3 -1 19 5 35 18 44 20 65 10 98
-6 17 -12 45 -14 62 -3 17 -12 44 -20 60 -8 16 -19 47 -23 68 -8 43 -71 139
-94 144 -19 4 -57 48 -78 92 -9 19 -26 39 -38 44 -11 5 -25 19 -30 30 -6 13
-19 21 -35 21 -15 1 -50 19 -80 42 -72 54 -81 58 -190 87 -172 45 -288 51
-434 25z m55 -49 c0 -5 -2 -10 -4 -10 -3 0 -8 5 -11 10 -3 6 -1 10 4 10 6 0
11 -4 11 -10z m-255 -60 c-3 -5 -14 -10 -23 -9 -14 0 -13 2 3 9 27 11 27 11
20 0z m-245 -100 c0 -5 -7 -10 -15 -10 -8 0 -15 -4 -15 -10 0 -12 -69 -45 -77
-36 -3 3 1 6 10 6 9 0 20 6 24 13 6 10 60 46 71 47 1 0 2 -4 2 -10z m-138 -86
c-12 -8 -28 -13 -35 -11 -7 3 -1 9 13 15 37 16 47 14 22 -4z m-71 -45 c-13
-11 -27 -17 -30 -13 -7 7 28 34 43 34 6 -1 0 -10 -13 -21z m-111 -74 c-7 -8
-17 -15 -22 -15 -6 0 -5 7 2 15 7 8 17 15 22 15 6 0 5 -7 -2 -15z m1694 -46
c9 -23 15 -44 12 -47 -3 -2 -10 7 -16 22 -5 15 -15 36 -20 47 -6 11 -7 19 -1
19 5 0 16 -19 25 -41z m-1784 -23 c0 -3 -4 -8 -10 -11 -5 -3 -10 -1 -10 4 0 6
5 11 10 11 6 0 10 -2 10 -4z m-35 -36 c-3 -5 -12 -10 -18 -10 -7 0 -6 4 3 10
19 12 23 12 15 0z m1869 -56 c4 -19 10 -42 13 -50 3 -8 0 -14 -5 -14 -12 0
-17 15 -28 74 -4 26 -3 37 3 33 6 -4 14 -23 17 -43z m-1894 32 c0 -2 -8 -10
-17 -17 -16 -13 -17 -12 -4 4 13 16 21 21 21 13z m1926 -141 c6 -26 -2 -62
-13 -52 -9 10 -11 77 -2 77 5 0 11 -11 15 -25z m-366 -1059 c0 -2 -7 -7 -16
-10 -8 -3 -12 -2 -9 4 6 10 25 14 25 6z m-95 -35 c-3 -6 -11 -11 -17 -11 -6 0
-6 6 2 15 14 17 26 13 15 -4z"/>
<path d="M315 5890 c-3 -5 -1 -10 4 -10 6 0 11 5 11 10 0 6 -2 10 -4 10 -3 0
-8 -4 -11 -10z"/>
<path d="M2494 5614 c-4 -14 -2 -30 5 -37 8 -8 11 -6 11 10 0 12 3 28 6 37 3
9 1 16 -5 16 -6 0 -14 -12 -17 -26z"/>
<path d="M4364 5567 c-176 -84 -346 -250 -508 -498 -57 -86 -81 -114 -130
-147 -34 -23 -131 -89 -216 -147 -85 -58 -175 -124 -199 -147 -24 -23 -52 -43
-63 -43 -11 -1 -23 -6 -26 -11 -12 -17 -124 -99 -212 -156 -131 -84 -331 -161
-419 -161 -58 0 -81 16 -81 57 0 37 41 150 83 231 47 89 43 87 180 100 81 7
162 32 251 77 92 46 142 83 240 177 72 70 95 100 124 161 44 96 44 129 -4 187
-47 57 -68 70 -129 79 -73 10 -94 7 -131 -21 -18 -14 -71 -43 -119 -66 -76
-37 -102 -56 -209 -163 -130 -129 -252 -281 -310 -387 -38 -70 -106 -247 -111
-292 -4 -39 18 -128 43 -168 52 -86 124 -122 245 -126 91 -2 122 4 154 32 10
9 53 31 95 49 97 42 146 71 244 144 94 69 185 133 314 220 52 35 106 74 120
86 58 49 58 48 58 23 0 -34 35 -108 66 -139 24 -23 68 -42 101 -42 64 -1 138
18 175 45 22 16 184 171 358 344 174 172 319 312 323 309 4 -2 3 -21 -2 -41
-4 -21 -7 -81 -6 -133 3 -109 18 -149 92 -242 51 -63 85 -80 175 -83 37 -2 67
3 90 15 19 10 40 18 45 19 6 0 63 21 127 47 81 31 141 62 190 99 40 30 94 65
120 79 25 14 56 39 67 55 12 16 30 33 41 36 10 3 28 21 38 40 l20 33 -33 -19
c-20 -12 -36 -16 -39 -10 -7 11 33 43 129 101 39 23 88 59 110 80 92 87 108
101 126 111 27 14 14 29 -21 24 -17 -2 -30 0 -30 5 0 8 116 68 163 83 18 7 24
37 7 37 -25 0 -199 -92 -364 -193 -99 -61 -190 -116 -201 -122 -55 -31 -112
-67 -240 -154 -182 -122 -275 -163 -397 -174 -51 -5 -59 2 -47 43 5 14 22 90
38 170 28 137 35 193 33 266 -1 42 -43 84 -91 91 -20 2 -48 9 -63 15 -25 9
-33 6 -75 -28 -27 -21 -161 -151 -299 -289 -138 -137 -275 -273 -305 -300 -51
-48 -169 -143 -196 -159 -29 -16 -30 7 -4 53 16 26 32 63 36 80 8 35 58 78
135 115 25 11 48 26 52 31 11 15 -1 48 -23 63 -17 13 -16 18 30 85 171 253
308 372 441 385 59 5 65 11 44 40 -21 31 -62 50 -120 57 -39 5 -59 1 -100 -18z
m1521 -203 c-24 -19 -106 -56 -112 -50 -6 6 62 46 95 56 38 12 39 11 17 -6z
m-1218 -19 c-7 -16 -37 -21 -37 -5 0 10 32 31 39 25 2 -2 1 -11 -2 -20z m-37
-29 c0 -3 -7 -12 -16 -20 -23 -23 -40 -19 -19 4 16 18 35 26 35 16z m1110 -31
c-7 -8 -16 -15 -21 -15 -5 0 -9 7 -9 15 0 9 9 15 21 15 18 0 19 -2 9 -15z
m-1183 -42 c-9 -9 -19 -14 -22 -11 -3 3 2 13 11 22 9 9 19 14 22 11 3 -3 -2
-13 -11 -22z m1114 -4 c-13 -10 -32 -19 -43 -19 -19 0 -19 1 3 19 45 35 84 35
40 0z m-1151 -27 c0 -11 -22 -32 -32 -32 -5 0 -4 9 2 20 11 20 30 28 30 12z
m-1248 -19 c48 -43 3 -149 -105 -248 -66 -61 -219 -163 -312 -207 -35 -17
-174 -52 -181 -45 -12 12 132 191 227 281 119 114 164 145 262 177 44 14 69
28 72 40 8 23 13 24 37 2z m2333 7 c-3 -6 -19 -17 -35 -25 -35 -18 -50 -3 -18
19 25 18 63 22 53 6z m-1138 -47 c-9 -9 -19 -14 -23 -11 -10 10 6 28 24 28 15
0 15 -1 -1 -17z m1053 -3 c0 -5 -3 -10 -7 -11 -5 0 -17 -2 -28 -4 -20 -4 -20
-4 -1 11 23 16 36 18 36 4z m-1100 -35 c0 -8 -10 -19 -21 -26 -22 -11 -21 -3
4 29 12 16 17 15 17 -3z m-60 -60 c-7 -9 -15 -13 -18 -10 -3 2 1 11 8 20 7 9
15 13 18 10 3 -2 -1 -11 -8 -20z m1135 -45 c-3 -5 -10 -10 -16 -10 -5 0 -9 5
-9 10 0 6 7 10 16 10 8 0 12 -4 9 -10z m-105 -39 c0 -4 -27 -25 -59 -45 -42
-26 -70 -36 -99 -36 -24 0 -57 -10 -83 -25 -49 -27 -59 -30 -59 -14 0 19 185
99 298 128 1 1 2 -3 2 -8z"/>
<path d="M5996 5421 c-4 -7 -5 -15 -2 -18 9 -9 19 4 14 18 -4 11 -6 11 -12 0z"/>
<path d="M40 5364 c0 -8 5 -12 10 -9 6 3 10 10 10 16 0 5 -4 9 -10 9 -5 0 -10
-7 -10 -16z"/>
<path d="M2400 5249 c0 -5 5 -7 10 -4 6 3 10 8 10 11 0 2 -4 4 -10 4 -5 0 -10
-5 -10 -11z"/>
<path d="M894 5233 c-36 -7 -52 -35 -58 -97 -4 -33 -8 -71 -10 -85 -3 -14 -7
-45 -11 -67 -3 -23 -8 -77 -10 -120 -4 -80 -14 -199 -20 -231 -1 -10 -6 -52
-11 -93 -4 -41 -8 -77 -9 -80 -1 -3 -5 -32 -9 -65 -4 -33 -11 -73 -16 -90 -5
-16 -12 -55 -15 -85 -3 -30 -8 -62 -10 -70 -3 -8 -9 -53 -15 -100 -5 -47 -12
-94 -14 -105 -3 -11 -5 -30 -5 -41 -1 -12 -9 -31 -18 -42 -15 -18 -24 -19 -58
-12 l-40 8 40 2 c39 2 39 2 10 9 -16 4 -40 13 -52 19 -30 16 -63 15 -63 -2 0
-15 85 -76 106 -76 22 0 45 -45 40 -75 -3 -16 -9 -49 -13 -74 -4 -25 -8 -48
-8 -51 -1 -3 -5 -27 -10 -55 -4 -27 -16 -70 -25 -95 -10 -25 -20 -63 -23 -85
-3 -22 -8 -49 -10 -60 -3 -11 -10 -42 -16 -68 -7 -27 -17 -63 -24 -80 -8 -18
-13 -45 -12 -62 1 -16 -4 -57 -12 -90 -8 -33 -16 -75 -19 -95 -3 -19 -10 -38
-16 -41 -5 -4 -12 -24 -15 -45 -6 -47 -21 -77 -33 -69 -5 3 -12 28 -16 56 -4
27 -10 51 -13 53 -4 3 -22 -34 -40 -81 l-34 -85 19 -55 c20 -59 51 -90 116
-117 32 -14 37 -14 50 2 15 17 56 134 64 182 9 53 28 128 53 205 14 44 26 82
26 85 1 3 4 19 8 35 4 17 9 40 11 51 3 12 9 30 15 40 10 20 24 70 46 169 7 33
21 94 30 135 9 41 18 82 20 90 2 8 11 51 20 95 23 112 34 145 49 139 24 -9
296 54 339 79 23 13 71 39 107 57 74 38 141 83 179 121 14 14 41 34 59 43 17
9 32 21 32 26 0 5 15 16 33 23 20 9 36 25 43 45 10 26 10 30 -4 25 -10 -4 -13
-2 -8 6 4 6 16 9 27 6 25 -8 108 51 109 77 0 18 -57 -12 -68 -35 -15 -32 -37
-36 -39 -7 -2 18 7 24 29 21 4 0 27 22 51 49 25 28 50 50 55 50 11 0 28 38 24
53 -1 4 4 7 11 8 6 0 3 4 -8 8 -19 8 -18 10 11 37 30 29 51 74 33 74 -5 0 -14
-9 -21 -20 -7 -11 -17 -20 -23 -20 -6 0 -16 -12 -23 -27 -7 -16 -28 -39 -47
-53 -20 -15 -34 -33 -34 -45 0 -11 3 -14 6 -7 2 6 9 12 15 12 6 0 3 -9 -7 -20
-20 -22 -50 -28 -39 -7 3 6 -7 -1 -24 -18 -16 -16 -28 -32 -26 -35 1 -3 -7 -7
-19 -7 -12 -1 -23 -7 -25 -13 -6 -16 -15 -24 -151 -130 -35 -28 -69 -50 -75
-50 -6 0 -3 5 7 11 28 16 107 94 107 105 0 6 19 21 42 34 23 14 66 51 96 83
30 31 61 57 69 57 8 0 11 5 8 10 -13 21 -37 8 -97 -50 -35 -33 -68 -60 -75
-60 -7 0 -17 -9 -22 -19 -27 -50 -410 -314 -503 -347 -50 -17 -51 -17 -44 1 7
19 -5 19 -50 0 -43 -18 -54 -13 -54 22 0 21 47 315 75 473 11 59 26 162 31
210 4 46 7 67 44 300 42 265 36 303 -52 314 -13 2 -33 1 -44 -1z m-74 -855
c-12 -65 -16 -96 -25 -207 -3 -40 -7 -76 -9 -80 -2 -3 -7 -35 -11 -71 -14
-136 -16 -140 -41 -140 -8 0 -14 1 -14 3 0 2 9 43 19 92 11 50 22 122 26 160
4 39 13 102 20 140 8 39 16 81 18 95 16 84 21 104 25 86 2 -10 -1 -46 -8 -78z
m940 7 c11 -13 10 -14 -6 -8 -16 6 -17 4 -7 -9 7 -8 10 -18 6 -21 -14 -15 -22
-6 -19 21 5 39 7 40 26 17z m-215 -275 c-16 -16 -35 -30 -42 -30 -18 0 -17 3
20 42 19 22 36 32 41 27 6 -5 -1 -21 -19 -39z m-205 -39 c0 -9 -130 -91 -146
-91 -5 0 -20 -9 -34 -20 -14 -11 -29 -20 -34 -20 -10 0 16 21 104 82 80 55
110 69 110 49z m70 -50 c0 -12 -30 -22 -43 -14 -7 4 -3 9 9 14 26 10 34 10 34
0z m-95 -62 c-8 -12 -35 -12 -35 0 0 11 22 20 33 14 4 -2 5 -9 2 -14z m-255
-59 c-14 -10 -27 -17 -29 -14 -6 5 31 33 44 33 6 1 -1 -8 -15 -19z m-135 -9
c-6 -11 -64 -25 -72 -18 -3 3 10 10 28 16 45 12 51 13 44 2z m264 -6 c-15 -14
-79 -34 -84 -25 -3 6 -5 10 -3 10 2 0 21 7 43 14 36 13 56 13 44 1z m-449 -35
c0 -5 -7 -10 -16 -10 -8 0 -12 5 -9 10 3 6 10 10 16 10 5 0 9 -4 9 -10z m340
-10 c-8 -5 -22 -9 -30 -9 -10 0 -8 3 5 9 27 12 43 12 25 0z m-142 -40 c-9 -6
-38 -12 -65 -15 l-48 -5 35 14 c41 17 106 22 78 6z m-208 -29 c0 -5 -9 -51
-19 -102 -11 -52 -22 -112 -25 -134 -14 -116 -153 -655 -168 -655 -11 0 -10
12 7 78 40 155 87 361 91 397 3 22 12 51 20 64 9 12 14 32 11 42 -3 11 -1 36
5 56 5 20 11 50 13 67 1 17 10 65 19 106 9 41 16 78 16 83 0 4 7 7 15 7 8 0
15 -4 15 -9z m-212 -955 c-6 -17 -16 -37 -24 -45 -10 -11 -11 -8 -4 20 18 71
23 81 30 68 5 -6 3 -26 -2 -43z"/>
<path d="M2390 5195 c-19 -23 -7 -39 13 -17 10 11 14 23 9 26 -5 3 -15 -1 -22
-9z"/>
<path d="M2356 5134 c-4 -9 -4 -19 -2 -21 8 -8 26 8 26 23 0 19 -16 18 -24 -2z"/>
<path d="M2303 5009 c-16 -16 -17 -49 -3 -49 13 0 23 24 18 45 -2 13 -5 14
-15 4z"/>
<path d="M2205 4850 c-10 -11 -14 -20 -9 -20 5 0 15 9 22 20 7 11 11 20 9 20
-2 0 -12 -9 -22 -20z"/>
<path d="M2147 4765 c-20 -30 -31 -55 -24 -55 13 0 50 53 61 88 11 34 4 27
-37 -33z"/>
<path d="M2086 4683 c-4 -9 -2 -21 4 -27 7 -7 10 -7 10 1 0 6 3 18 6 27 3 9 2
16 -4 16 -5 0 -13 -8 -16 -17z"/>
<path d="M1912 4609 c-12 -18 -11 -19 5 -11 10 5 23 7 30 5 6 -2 15 1 19 8 5
9 2 10 -9 6 -10 -3 -17 -2 -17 3 0 17 -15 11 -28 -11z"/>
<path d="M1977 4536 c-42 -40 -53 -79 -15 -54 30 20 61 63 56 78 -2 7 -19 -3
-41 -24z"/>
<path d="M1760 4485 c-7 -9 -8 -15 -2 -15 5 0 12 7 16 15 3 8 4 15 2 15 -2 0
-9 -7 -16 -15z"/>
<path d="M1830 4439 c0 -18 2 -19 15 -9 8 7 15 16 15 21 0 5 -7 9 -15 9 -9 0
-15 -9 -15 -21z"/>
<path d="M1822 4374 c-22 -15 -29 -34 -13 -34 5 0 19 8 32 18 28 23 11 37 -19
16z"/>
<path d="M1771 4294 c0 -11 3 -14 6 -6 3 7 2 16 -1 19 -3 4 -6 -2 -5 -13z"/>
<path d="M4161 4111 c-96 -25 -105 -33 -289 -264 -19 -23 -44 -54 -55 -69 -39
-49 -87 -112 -153 -203 -48 -67 -64 -96 -62 -117 2 -15 -1 -28 -7 -28 -38 -5
-79 -80 -70 -129 6 -31 5 -34 -7 -18 -12 16 -15 14 -41 -25 -18 -28 -24 -45
-17 -52 6 -6 10 -15 10 -21 0 -5 -4 -4 -8 2 -11 18 -52 -12 -52 -38 0 -23 6
-24 27 -4 10 11 19 12 27 6 8 -7 19 1 35 25 13 19 25 33 27 31 6 -6 -25 -116
-41 -148 -15 -29 -38 -38 -50 -20 -3 5 -1 12 5 16 5 3 10 18 10 32 0 21 -2 23
-15 13 -12 -10 -16 -9 -21 4 -8 22 -32 3 -50 -39 -10 -25 -10 -31 5 -42 14
-11 14 -12 0 -8 -19 7 -33 -9 -54 -60 -15 -34 -15 -37 -1 -32 10 4 16 1 16 -7
0 -8 -6 -16 -14 -19 -8 -3 -21 -28 -31 -56 -9 -28 -21 -53 -26 -56 -14 -9 -11
-35 4 -32 7 1 12 -8 11 -20 0 -15 5 -23 15 -23 26 0 61 29 61 51 0 11 7 19 16
19 8 0 12 5 9 10 -4 6 -11 8 -16 5 -5 -4 -9 -1 -9 5 0 6 7 13 15 16 22 9 18
32 -7 36 -26 4 -32 33 -10 54 14 15 17 15 28 0 20 -28 63 -2 64 39 1 12 21 36
51 59 64 49 78 71 83 131 2 28 9 63 15 79 11 27 10 28 -13 24 -16 -3 -27 0
-31 10 -7 19 14 44 32 38 11 -5 13 0 8 17 -3 12 -3 17 2 11 11 -15 38 -23 49
-16 14 11 66 88 129 192 90 149 218 324 309 420 24 25 50 59 59 75 40 73 70
90 100 57 31 -34 30 -72 -3 -167 -91 -262 -258 -531 -559 -903 -42 -52 -91
-112 -109 -135 -51 -65 -142 -164 -199 -219 -28 -28 -71 -76 -94 -108 -33 -46
-50 -60 -76 -65 -19 -3 -36 -14 -39 -23 -17 -53 -28 -72 -40 -72 -7 0 -18 -10
-25 -21 -9 -17 -13 -19 -20 -8 -13 21 -11 34 13 65 13 15 31 50 40 78 10 27
25 57 34 67 9 10 14 25 10 35 -6 16 -8 16 -25 0 -19 -17 -20 -17 -23 6 l-5 23
-10 -25 c-7 -17 -7 -30 0 -41 10 -17 -10 -79 -25 -79 -5 0 -8 -8 -8 -19 0 -10
-8 -25 -17 -32 -10 -8 -14 -9 -10 -2 4 6 3 14 -2 18 -11 6 -31 -25 -31 -46 0
-10 3 -10 12 -1 7 7 15 12 19 12 11 0 5 -40 -7 -48 -6 -4 -15 -18 -19 -32 -15
-49 -46 -91 -64 -85 -12 4 -21 -2 -29 -19 -6 -13 -24 -39 -41 -58 -17 -19 -28
-38 -24 -42 3 -3 -3 -6 -14 -6 -13 0 -39 -21 -67 -54 -29 -35 -93 -86 -174
-140 -70 -46 -246 -166 -392 -265 -463 -316 -572 -388 -695 -459 -118 -68
-140 -78 -187 -87 -141 -28 -174 -28 -194 0 -11 15 -10 96 2 145 3 14 8 36 10
49 20 104 130 327 207 422 110 133 289 208 370 154 34 -22 65 -90 71 -159 6
-67 17 -83 64 -91 45 -8 92 37 92 87 0 94 -124 228 -262 282 -185 72 -300 34
-447 -149 -76 -95 -167 -277 -212 -425 -58 -193 -42 -318 52 -410 43 -42 143
-80 208 -80 123 0 288 76 602 275 23 14 161 112 233 164 34 25 135 95 226 156
91 61 249 169 353 239 103 70 191 124 197 121 5 -3 14 3 19 14 6 10 31 31 55
45 58 34 60 39 40 78 -16 32 -16 32 12 55 16 13 53 40 82 60 58 39 323 298
447 437 44 49 85 94 90 100 121 134 231 281 331 443 37 59 79 124 94 143 15
19 52 73 83 120 62 94 115 168 135 189 21 22 48 81 75 166 28 88 45 145 60
210 22 91 16 104 -62 154 -55 36 -135 48 -200 32z m22 -456 c-7 -21 -13 -19
-13 6 0 11 4 18 10 14 5 -3 7 -12 3 -20z m-423 -52 c0 -5 -14 -28 -30 -53 -35
-52 -43 -28 -9 26 19 31 39 45 39 27z m-76 -131 c-6 -4 -21 -29 -34 -57 -15
-31 -26 -44 -28 -33 -4 18 31 87 50 99 15 10 27 1 12 -9z m-259 -464 c-10 -31
-25 -47 -25 -26 0 24 11 48 22 48 5 0 6 -10 3 -22z m-632 -1082 c-35 -32 -108
-83 -196 -136 -37 -22 -128 -83 -202 -135 -75 -52 -140 -95 -145 -95 -6 0 -10
-4 -10 -9 0 -11 -188 -107 -195 -99 -3 3 20 23 52 45 118 81 220 151 298 206
44 31 121 82 170 113 50 31 99 65 110 74 11 10 47 35 80 55 47 28 61 33 63 21
2 -8 -9 -26 -25 -40z m-758 -496 c-3 -5 -12 -10 -18 -10 -7 0 -6 4 3 10 19 12
23 12 15 0z"/>
<path d="M3256 2857 c-22 -32 -19 -41 7 -22 10 7 17 22 15 32 -3 15 -6 14 -22
-10z"/>
<path d="M5840 2859 c-22 -10 -44 -27 -48 -38 -4 -11 -45 -52 -92 -91 -129
-109 -455 -413 -534 -499 -17 -18 -53 -44 -80 -58 l-48 -24 6 52 c6 48 42 160
94 294 19 48 20 63 8 110 -6 25 -44 45 -68 36 -42 -15 -129 -167 -163 -283 -9
-32 -18 -58 -20 -58 -1 0 -15 6 -29 14 -73 37 -178 -38 -458 -329 -405 -419
-469 -476 -613 -539 -74 -33 -78 -21 -30 89 20 46 46 113 58 147 36 100 40
105 103 107 17 1 30 17 54 69 18 37 40 77 49 88 9 12 25 46 35 76 23 67 16
160 -15 186 -10 9 -19 22 -19 28 0 6 -11 10 -24 9 -13 -2 -37 3 -52 11 -58 31
-143 -6 -291 -124 -54 -44 -114 -97 -133 -119 -19 -21 -51 -49 -71 -61 -19
-11 -52 -39 -72 -62 -21 -22 -41 -40 -45 -40 -12 0 -91 -78 -142 -139 -25 -30
-83 -99 -130 -155 -47 -56 -96 -117 -110 -136 -13 -19 -28 -39 -32 -45 -5 -5
-53 -68 -107 -140 -54 -71 -113 -143 -131 -160 l-32 -30 6 35 c3 19 11 69 17
110 13 92 23 133 56 230 35 103 38 120 22 120 -9 0 -10 3 -4 8 20 14 85 118
85 135 0 10 7 32 16 49 22 42 5 56 -30 26 -17 -15 -28 -35 -30 -58 -6 -54 -16
-73 -32 -59 -8 6 -11 15 -8 20 3 5 0 9 -5 9 -6 0 -11 -7 -11 -15 0 -8 5 -15
10 -15 16 0 12 -57 -5 -64 -10 -4 -14 -16 -11 -45 4 -41 -11 -60 -33 -38 -6 6
-11 7 -12 2 0 -6 -2 -18 -4 -27 -2 -11 2 -15 11 -11 10 4 9 -5 -4 -38 -12 -32
-18 -38 -20 -24 -3 11 -12 28 -22 37 -15 14 -19 15 -24 3 -3 -8 -1 -15 4 -15
6 0 10 -8 10 -17 0 -14 -2 -15 -9 -4 -5 7 -14 10 -20 7 -15 -9 -14 -41 1 -66
14 -22 2 -41 -13 -20 -8 11 -9 8 -5 -12 4 -16 2 -28 -4 -28 -16 0 -11 -33 10
-60 l20 -25 0 25 c0 19 2 22 9 11 5 -8 6 -22 1 -30 -4 -9 -9 -20 -10 -26 -3
-19 -8 -17 -15 6 -7 22 -8 22 -21 4 -8 -10 -14 -13 -14 -6 0 7 -5 9 -10 6 -6
-4 -10 -14 -9 -23 1 -10 0 -24 -4 -32 -3 -8 -11 -58 -17 -110 -7 -52 -17 -106
-22 -119 -13 -36 6 -73 57 -110 61 -44 83 -41 139 19 25 27 46 53 46 57 0 4
13 22 28 39 15 17 83 109 152 204 186 256 220 302 276 366 29 33 85 97 125
144 41 47 76 87 79 90 12 10 40 55 40 63 0 4 -4 5 -10 2 -5 -3 -10 -2 -10 3 0
10 22 22 48 28 35 7 152 111 152 135 0 10 13 25 30 34 17 9 30 22 30 31 0 13
-4 13 -29 -2 -16 -10 -35 -28 -42 -41 -8 -15 -16 -20 -22 -14 -14 14 -61 -12
-74 -42 -6 -13 -37 -46 -69 -73 -32 -27 -77 -69 -99 -93 -22 -25 -62 -68 -90
-96 -99 -103 -186 -202 -285 -327 -90 -115 -120 -145 -120 -120 0 9 50 89 73
118 9 10 42 53 75 94 184 231 311 366 527 565 81 74 219 179 273 207 28 15 42
2 16 -16 -27 -19 -74 -64 -74 -71 0 -3 7 -5 16 -5 8 0 23 -7 32 -16 14 -15 14
-20 -6 -58 -12 -22 -22 -51 -22 -63 0 -29 -24 -101 -62 -183 -17 -36 -36 -79
-44 -96 -7 -16 -27 -61 -45 -100 -60 -132 -68 -164 -52 -208 29 -85 80 -112
181 -95 132 22 254 96 421 254 113 106 108 101 176 181 32 38 100 110 150 160
49 50 127 130 173 178 70 75 177 156 203 156 4 0 8 -22 7 -48 0 -98 74 -195
146 -190 73 4 174 72 325 218 31 30 110 105 176 165 65 61 126 117 134 127 9
9 25 18 36 20 27 4 26 -6 -35 -322 -47 -245 -66 -310 -90 -310 -4 0 -16 -7
-25 -16 -14 -14 -14 -17 -1 -28 24 -18 9 -46 -53 -100 -56 -49 -91 -70 -77
-47 14 22 -12 10 -43 -20 -18 -17 -30 -34 -26 -37 3 -4 15 4 25 18 10 14 22
21 26 17 4 -4 -5 -21 -21 -37 -19 -20 -31 -26 -36 -19 -4 6 -12 8 -18 5 -16
-10 -14 -26 4 -26 12 0 13 -5 3 -24 -6 -14 -17 -27 -25 -30 -12 -5 -13 0 -8
24 4 17 4 30 1 30 -3 0 -19 -21 -37 -47 -22 -32 -27 -44 -16 -40 26 10 20 -11
-10 -39 -15 -14 -33 -22 -43 -19 -19 6 -64 -38 -79 -78 -10 -26 -9 -28 10 -22
18 6 20 5 10 -14 -12 -22 -31 -29 -31 -11 0 6 -4 10 -10 10 -5 0 -10 -7 -10
-15 0 -8 4 -15 10 -15 5 0 7 -7 3 -16 -6 -15 -7 -15 -18 -1 -6 9 -16 13 -21 9
-18 -12 -130 -199 -179 -296 -42 -84 -85 -220 -85 -266 0 -29 83 -179 120
-217 43 -44 89 -63 152 -63 59 0 106 18 146 57 36 36 130 173 158 234 12 26
27 50 33 53 6 4 11 16 11 28 0 11 11 33 24 48 13 16 27 49 30 73 4 24 18 59
31 77 14 18 30 49 36 69 6 20 20 51 31 69 11 18 23 50 25 70 3 20 9 42 13 47
8 9 27 76 36 119 2 11 13 40 25 65 13 27 19 55 15 71 -3 15 -1 31 4 36 4 5 18
40 29 78 12 38 26 75 31 81 6 7 10 32 9 56 -3 78 91 249 136 249 17 0 19 9 6
29 -8 12 -12 12 -24 2 -10 -8 -17 -9 -22 -1 -3 5 -1 10 5 10 14 0 80 66 80 80
0 14 -4 13 -62 -16 -28 -14 -54 -22 -59 -17 -5 5 7 79 26 168 85 390 107 466
150 507 42 39 29 60 -56 88 -46 16 -51 16 -89 -1z m0 -839 c0 -5 -7 -10 -15
-10 -8 0 -15 5 -15 10 0 6 7 10 15 10 8 0 15 -4 15 -10z m-274 -342 c-2 -7
-17 -51 -31 -98 -15 -47 -40 -128 -57 -180 -17 -52 -36 -117 -44 -143 -13 -49
-13 -49 10 -43 21 5 23 2 24 -39 0 -25 -4 -47 -9 -51 -5 -3 -9 -15 -9 -27 0
-11 -14 -36 -32 -54 -18 -18 -26 -33 -20 -33 9 0 8 -10 -3 -36 -8 -20 -15 -47
-15 -60 0 -17 -6 -24 -19 -24 -30 0 -38 -40 -12 -61 11 -9 21 -23 21 -30 0 -8
-6 -6 -19 5 -13 12 -21 14 -26 6 -4 -6 -12 -9 -18 -7 -18 6 -50 -62 -37 -78 8
-10 6 -15 -10 -20 -11 -4 -38 -30 -59 -58 -44 -59 -98 -113 -106 -105 -3 2 6
20 20 39 78 107 152 226 195 315 45 92 103 237 117 289 4 18 2 18 -16 -4 -12
-12 -18 -27 -15 -32 3 -6 -1 -21 -10 -34 -9 -14 -34 -65 -55 -115 -49 -112
-97 -192 -178 -297 -67 -86 -106 -117 -163 -128 -59 -11 -79 15 -81 98 -2 54
2 74 18 95 11 15 24 39 28 52 4 14 31 72 60 130 29 58 65 130 80 160 15 30 71
114 125 185 54 72 105 142 113 158 21 41 206 237 224 237 8 0 12 -6 9 -12z
m-10 -266 c-9 -8 -26 10 -26 26 1 15 2 15 15 -2 8 -11 13 -21 11 -24z m-29
-24 c-3 -8 -6 -5 -6 6 -1 11 2 17 5 13 3 -3 4 -12 1 -19z m-2887 -22 c0 -3 -4
-8 -10 -11 -5 -3 -10 -1 -10 4 0 6 5 11 10 11 6 0 10 -2 10 -4z m2842 -78 c-7
-7 -12 -8 -12 -2 0 14 12 26 19 19 2 -3 -1 -11 -7 -17z m-2840 -30 c-7 -7 -12
-8 -12 -2 0 14 12 26 19 19 2 -3 -1 -11 -7 -17z m2848 -9 c0 -5 -7 -9 -15 -9
-9 0 -12 6 -9 15 6 15 24 11 24 -6z m-430 -53 c0 -8 -7 -16 -15 -20 -13 -4
-14 -2 -5 14 13 23 20 26 20 6z m420 -135 c0 -6 -4 -13 -10 -16 -5 -3 -10 1
-10 9 0 9 5 16 10 16 6 0 10 -4 10 -9z"/>
<path d="M3221 2721 c-6 -10 -7 -21 -4 -25 9 -8 33 14 33 30 0 20 -18 17 -29
-5z"/>
<path d="M3190 2653 c-12 -15 -31 -28 -43 -28 -11 0 -22 -6 -25 -14 -3 -10 0
-12 13 -7 11 4 22 2 26 -5 10 -17 24 -5 44 37 21 45 14 54 -15 17z"/>
<path d="M3276 2665 c-3 -9 0 -15 9 -15 16 0 20 16 6 24 -5 3 -11 -1 -15 -9z"/>
<path d="M3240 2584 c-25 -23 -40 -45 -40 -60 0 -13 4 -24 9 -24 16 0 81 82
81 102 0 25 -4 23 -50 -18z"/>
<path d="M6745 2545 c-55 -13 -131 -35 -168 -49 -102 -38 -312 -145 -349 -177
l-33 -29 29 10 c15 6 55 26 88 45 32 19 61 35 63 35 2 0 34 14 72 32 37 18 76
35 85 40 11 4 23 1 32 -8 13 -12 23 -13 55 -4 22 6 47 17 55 25 8 8 19 15 24
15 6 0 39 13 74 30 34 16 77 30 93 30 17 0 50 7 75 15 l45 14 -70 -1 c-39 0
-115 -11 -170 -23z"/>
<path d="M3056 2493 c-3 -3 -6 -17 -6 -31 0 -21 2 -22 15 -12 8 7 15 18 15 26
0 15 -15 26 -24 17z"/>
<path d="M6527 2413 c-10 -9 -9 -23 1 -23 5 0 17 7 28 15 19 14 19 14 -2 15
-11 0 -24 -3 -27 -7z"/>
<path d="M6127 2261 c-72 -42 -74 -48 -20 -48 29 -1 41 2 29 6 -17 7 -17 9 9
29 15 12 32 22 36 22 5 0 9 5 9 10 0 15 -11 12 -63 -19z"/>
<path d="M6205 2270 c3 -5 14 -10 23 -10 15 0 15 2 2 10 -20 13 -33 13 -25 0z"/>
<path d="M6005 2191 c-16 -10 -39 -28 -49 -40 l-19 -21 29 10 c37 14 77 47 72
60 -2 6 -16 2 -33 -9z"/>
<path d="M6091 2186 c-9 -10 -9 -16 -1 -21 17 -10 37 12 24 25 -8 8 -15 6 -23
-4z"/>
<path d="M6050 2148 c0 -4 7 -8 15 -8 8 0 15 4 15 8 0 5 -7 9 -15 9 -8 0 -15
-4 -15 -9z"/>
<path d="M6006 2112 c-3 -6 -20 -8 -36 -6 -17 3 -30 1 -30 -5 0 -6 -7 -11 -15
-11 -8 0 -15 -5 -15 -11 0 -6 9 -9 20 -6 14 4 20 0 20 -11 1 -15 2 -15 14 1 7
9 18 17 23 17 13 0 38 29 30 36 -3 3 -8 1 -11 -4z"/>
<path d="M3712 2058 c-20 -20 -15 -40 8 -33 11 3 20 2 20 -3 0 -6 -5 -12 -12
-14 -9 -3 -9 -6 -1 -11 13 -8 75 41 68 53 -3 5 -12 7 -20 3 -8 -3 -15 0 -15 6
0 15 -33 14 -48 -1z"/>
<path d="M5900 2040 c0 -5 5 -10 11 -10 5 0 7 5 4 10 -3 6 -8 10 -11 10 -2 0
-4 -4 -4 -10z"/>
<path d="M5501 1781 c-7 -5 -12 -14 -9 -21 2 -7 10 -4 22 9 19 21 12 28 -13
12z"/>
<path d="M2722 1733 c-18 -32 -16 -51 4 -31 9 8 14 24 12 34 -4 18 -5 17 -16
-3z"/>
<path d="M5449 1730 c-20 -16 -21 -19 -7 -20 10 0 22 9 28 20 13 25 8 25 -21
0z"/>
<path d="M2684 1624 c-4 -10 -9 -22 -11 -26 -2 -5 0 -8 6 -8 11 0 26 39 17 47
-3 3 -9 -3 -12 -13z"/>
<path d="M2660 1570 c0 -8 -3 -25 -6 -37 -4 -13 -2 -23 4 -23 13 0 21 45 11
62 -7 10 -9 10 -9 -2z"/>
</g>
</svg>
